<?xml version="1.0"?>
<svg xmlns="http://www.w3.org/2000/svg" viewBox="0 0 26 26" enable-background="new 0 0 26 26">
    <path d="M25,13c0-6.6-5.4-12-12-12C6.4,1,1,6.4,1,13s5.4,12,12,12C19.6,25,25,19.6,25,13z M11.8,18.6c-2.9-2-5.6-5-5.7-5.2 C6.1,13.3,6,13.2,6,13s0.1-0.3,0.2-0.5c0.1-0.1,2.8-3.2,5.7-5.2c0.2-0.2,0.5-0.2,0.8,0C12.8,7.5,13,7.7,13,8v2.6 c0,0,6.1,0.3,6.4,0.5c0.4,0.3,0.6,1.2,0.6,1.9c0,0.7-0.3,1.5-0.6,1.8C19.1,15,13,15.4,13,15.4V18c0,0.3-0.1,0.5-0.4,0.6 C12.4,18.8,12.1,18.8,11.8,18.6z"/>
</svg>
